Coordinates
version=1
nRows=14
nColumns=36
inDegrees=yes

Units are S.I. units (second, meters, Newtons, ...)
If the header above contains a line with 'inDegrees', this indicates whether rotational values are in degrees (yes) or radians (no).

endheader
time	pelvis_tilt	pelvis_list	pelvis_rotation	pelvis_tx	pelvis_ty	pelvis_tz	hip_flexion_r	hip_adduction_r	hip_rotation_r	knee_angle_r	knee_angle_r_beta	ankle_angle_r	subtalar_angle_r	mtp_angle_r	hip_flexion_l	hip_adduction_l	hip_rotation_l	knee_angle_l	knee_angle_l_beta	ankle_angle_l	subtalar_angle_l	mtp_angle_l	lumbar_extension	lumbar_bending	lumbar_rotation	arm_flex_r	arm_add_r	arm_rot_r	elbow_flex_r	pro_sup_r	arm_flex_l	arm_add_l	arm_rot_l	elbow_flex_l	pro_sup_l
      6.51666670	    -35.21253984	     -1.58246316	     -5.51931625	      1.54500890	      0.54748766	      0.15300587	    105.41652251	    -16.87747377	     -3.07649608	    107.91566312	      1.88348364	     45.00868327	      6.32521664	     -7.49999987	    109.01196583	    -19.75241530	      5.48306841	    108.82900217	      1.89942441	     41.91376334	     -0.60074881	     -7.49999987	    -21.75453120	      2.52049767	     14.29251336	     91.19600880	     -5.22351239	     75.80688500	    120.69432875	     84.69921983	     85.28332189	      4.71019332	     67.30594893	    117.76278527	    100.50268165
      6.53333330	    -35.22793068	     -1.74138911	     -5.73765607	      1.54381809	      0.53029099	      0.15330809	    106.70249674	    -16.84494190	     -3.14401164	    109.27670060	      1.90723822	     44.77657958	      5.79553408	     -7.49999987	    110.70483553	    -19.86929862	      6.29849746	    110.18511749	      1.92309309	     41.41215847	     -1.01602292	     -7.49999987	    -21.67228042	      2.56031817	     14.77266883	     92.57500384	     -4.93290414	     75.92275495	    122.04766320	     82.99594212	     87.12470573	      5.75931267	     67.02078869	    118.39298495	     98.93122587
      6.55000000	    -35.04876553	     -1.85866935	     -5.97251433	      1.54731377	      0.52288390	      0.15100705	    107.80647115	    -16.78915411	     -3.08503397	    110.66122603	      1.93140275	     44.60996610	      5.25466636	     -7.49999987	    112.11291127	    -19.88777792	      7.12745065	    111.53845629	      1.94671330	     41.06016425	     -1.44813041	     -7.49999987	    -21.77208816	      2.53583448	     14.84622369	     93.05185757	     -5.12108395	     76.31428120	    123.17303990	     82.98285378	     87.16782632	      6.64997462	     66.50308421	    118.23544264	     99.39499040
      6.56666670	    -34.91883253	     -1.87955304	     -6.16127635	      1.54258511	      0.51901551	      0.15472308	    108.87861321	    -16.65618564	     -2.97308862	    111.89821469	      1.95299227	     44.41466888	      4.77695049	     -7.49999987	    113.41494856	    -19.95906704	      7.76537072	    112.71688966	      1.96728085	     40.75128380	     -1.62431025	     -7.49999987	    -22.15766729	      2.38121067	     15.12504874	     93.86695716	     -4.95958348	     76.45354981	    122.91334145	     82.93823816	     87.44576455	      6.43427858	     66.51415434	    117.25555265	     99.68857011
      6.58333330	    -34.85480294	     -1.95226653	     -6.29007505	      1.54647808	      0.51947624	      0.15184423	    109.56704769	    -16.60628433	     -2.98856193	    112.68237219	      1.96667840	     44.21424260	      4.27267671	     -7.49999987	    114.37268037	    -19.87320968	      8.34505869	    113.54717584	      1.98177207	     40.58693539	     -1.73365315	     -7.49999987	    -22.65938666	      2.38612268	     15.37823247	     93.38104768	     -5.30118467	     77.19239002	    121.77768744	     82.85596320	     86.62617995	      6.00751988	     66.99381187	    114.74968557	    100.11494102
      6.60000000	    -34.92259973	     -1.98614135	     -6.34817304	      1.54130609	      0.51480683	      0.15424056	    110.21481049	    -16.55454337	     -3.01180495	    113.25560338	      1.97668318	     44.05572786	      3.98683549	     -7.49999987	    115.22675377	    -19.83829606	      8.71824248	    114.13977311	      1.99211485	     40.40193952	     -1.79476252	     -7.49999987	    -22.79858260	      2.37873103	     15.52643186	     93.61405794	     -5.06114108	     76.91772323	    121.91632063	     82.78555451	     87.34486552	      6.27255901	     66.88394465	    114.35753060	    100.22536327
      6.61666670	    -35.09963956	     -2.14260568	     -6.40778421	      1.53681437	      0.51350964	      0.15680895	    110.65042319	    -16.44477091	     -3.27546117	    113.51331246	      1.98118105	     43.68907662	      3.39908897	     -7.49999987	    116.05438777	    -19.86045163	      9.12190580	    114.48452001	      1.99813182	     40.08340722	     -1.95627311	     -7.49999987	    -23.00318439	      2.33760691	     15.97620316	     94.07132389	     -5.80021256	     76.37594892	    122.15300760	     82.53335113	     88.27995700	      6.48311743	     67.34979696	    114.35032534	    100.47144665
      6.63333330	    -35.32010205	     -2.22166625	     -6.46031005	      1.54050788	      0.51473620	      0.15409138	    110.91749078	    -16.38152796	     -3.54275830	    113.52862150	      1.98144824	     43.44444415	      3.15740499	     -7.49999987	    116.54056623	    -19.82768687	      9.36427115	    114.55443231	      1.99935202	     39.88773890	     -2.00495031	     -7.49999987	    -23.01484622	      2.32237194	     16.24444904	     93.98869626	     -6.28648955	     76.25534215	    123.39463174	     82.36573364	     88.11315655	      7.19713446	     67.19387100	    114.91682972	    100.73146989
      6.65000000	    -35.40084716	     -2.11957438	     -6.46770470	      1.54008493	      0.51481546	      0.15389715	    110.95905181	    -16.31055479	     -3.58374177	    113.40891610	      1.97935899	     43.29551690	      3.20120489	     -7.49999987	    116.57280331	    -19.84522243	      9.29805840	    114.46771952	      1.99783859	     39.68162071	     -2.01936447	     -7.49999987	    -23.23934810	      2.18131368	     16.09071296	     94.04125443	     -6.37149867	     76.51361864	    124.13253015	     78.68051537	     88.18010536	      7.02033479	     67.86921143	    115.51251057	     95.04715715
      6.66666670	    -35.83486515	     -2.38018161	     -6.61744857	      1.53982383	      0.51462035	      0.15382455	    110.98131240	    -16.22296941	     -4.14057046	    113.06765914	      1.97340293	     42.99123949	      2.90937387	     -7.49999987	    117.02559124	    -19.78084556	      9.72247814	    114.34534939	      1.99570283	     39.67833334	     -2.03667466	     -7.49999987	    -22.87519262	      2.52725330	     16.90252444	     94.18995297	     -7.32212244	     77.43779229	    124.84140741	     75.96526379	     87.78428680	      7.67048188	     67.69054136	    114.50895543	     90.81038134
      6.68333330	    -35.91914742	     -2.39725187	     -6.73070554	      1.53940863	      0.51462343	      0.15358056	    110.79519510	    -16.10653329	     -4.38632266	    112.76433045	      1.96810885	     42.85893106	      2.99343082	     -7.49999987	    116.93761989	    -19.78658395	      9.80583552	    114.14883908	      1.99227308	     39.63249259	     -2.10291414	     -7.49999987	    -22.80895195	      2.65335392	     16.85763124	     94.06387029	     -7.17448438	     77.01493857	    124.88531341	     78.47606681	     88.01829371	      7.82645174	     66.26843271	    114.30940655	    103.61680133
      6.70000000	    -36.04292595	     -2.41544055	     -6.85242551	      1.53451304	      0.51402675	      0.15640523	    110.71805273	    -15.93043705	     -4.62445098	    112.48429229	      1.96322126	     42.62362090	      2.96940126	     -7.49999987	    116.96024326	    -19.80895162	      9.93424289	    113.94153002	      1.98865485	     39.53597281	     -2.18654935	     -7.49999987	    -22.59590755	      2.70892316	     17.00486282	     94.59053171	     -6.78687406	     76.58107000	    124.93467006	     78.46413862	     88.77654639	      7.66557943	     65.99246547	    114.41858740	    103.57837025
      6.71666670	    -36.12076713	     -2.37763736	     -6.94743298	      1.53389356	      0.51736513	      0.14982657	    110.61273192	    -15.84996182	     -4.83007400	    112.12601944	      1.95696822	     42.35922734	      2.92329570	     -7.49999987	    116.87644992	    -19.77225696	      9.92079095	    113.66490468	      1.98382683	     39.41051947	     -2.25403330	     -7.49999987	    -22.56568136	      2.90171090	     16.61656788	     94.93353050	     -6.88268585	     76.67882584	    124.95896846	     78.48828576	     89.33813626	      7.62741905	     65.56151870	    113.73176841	    103.55716731
      6.73333330	    -36.09728997	     -2.32301518	     -7.04617604	      1.53324269	      0.51847735	      0.14996222	    110.39569392	    -15.75783263	     -4.99891194	    111.74015990	      1.95023370	     42.06181656	      2.81372238	     -7.49999987	    116.63525422	    -19.70217818	      9.89597160	    113.37233599	      1.97872054	     39.18782272	     -2.47221446	     -7.49999987	    -22.54642948	      3.07898747	     16.59212758	     95.40793818	     -6.41989455	     76.53095755	    125.22000671	     79.17289197	     89.52286778	      7.68624485	     65.00120664	    113.84292711	    103.81236330
